<svg xmlns="http://www.w3.org/2000/svg" data-glyph="game-type-960-live" aria-hidden="true" viewBox="0 0 24 24"><path d="M15.5,2 l-2,0 l0,1.62 c4.2,0.67,7.5,4.11,7.95,8.38 l-3.0,0 c-0.39,-3.41,-2.79,-5.5,-6.44,-5.5 c-3.66,0,-6.06,2.09,-6.44,5.5 l-3.0,0 c0.45,-4.27,3.75,-7.71,7.95,-8.38 l-0.0,-1.62 l-2.0,0 c0,-1.7,0.43,-2,3.5,-2 c3.07,0,3.5,0.3,3.5,2 Z M10.56,12 l0.94,-4 l1,0 l0.95,4.0 Z M21.57,24 l-3.13,0 c-1.03,0,-1.43,-0.4,-1.43,-1.43 l0,-7.13 c0,-1.03,0.4,-1.43,1.43,-1.43 l3.13,0 c1.03,0,1.43,0.4,1.43,1.43 l0,7.13 c0,1.03,-0.4,1.43,-1.43,1.43 Z M5.57,24 l-4.57,0 l0,-2 l4,0 l0,-2 l-2.57,0 c-1.03,0,-1.43,-0.4,-1.43,-1.43 l0,-3.13 c0,-1.03,0.4,-1.43,1.43,-1.43 l3.13,0 c1.03,0,1.43,0.4,1.43,1.43 l0,7.13 c0,1.03,-0.4,1.43,-1.43,1.43 Z M3,18 l2,0 l0,-2 l-2,0 Z M11,22 l2,0 l0,-2 l-2,0 Z M13.57,24 l-3.13,0 c-1.03,0,-1.43,-0.4,-1.43,-1.43 l0,-7.13 c0,-1.03,0.4,-1.43,1.43,-1.43 l4.57,0 l0,2 l-4,0 l0,2 l2.57,0 c1.03,0,1.43,0.4,1.43,1.43 l0,3.13 c0,1.03,-0.4,1.43,-1.43,1.43 Z M19,22 l2,0 l0,-6 l-2,0 Z M19,22"></path></svg>