<svg xmlns="http://www.w3.org/2000/svg" data-glyph="game-type-three-check" aria-hidden="true" viewBox="0 0 24 24"><path d="M5.53,20.53 c-1.5,0,-2.83,-0.2,-4.23,-0.77 c-0.93,-0.43,-1.3,-1,-1.3,-2.03 l0,-1.6 c0,-1.03,0.37,-1.27,1.3,-0.83 c1.53,0.67,2.7,0.9,3.8,0.9 c1.23,0,2.1,-0.43,2.1,-1.4 c0,-0.8,-0.53,-1.23,-1.93,-1.23 l-0.7,0 c-1.03,0,-1.43,-0.4,-1.43,-1.43 l0,-0.23 c0,-1.03,0.33,-1.63,1.23,-2.2 l2.69,-1.67 l-5.63,0 c-1.03,0,-1.43,-0.4,-1.43,-1.43 l0,-1.27 c0,-1.03,0.4,-1.43,1.43,-1.43 l9.23,0 c1.03,0,1.43,0.4,1.43,1.43 l0,3.01 c-0.75,0.32,-1.32,0.85,-1.69,1.55 l-1.12,0.66 c0.27,0.11,0.52,0.23,0.75,0.38 c-0.07,0.33,-0.11,0.69,-0.11,1.06 c-0.0,1.86,0.87,3.19,2.35,3.73 c-0.18,2.59,-2.04,4.81,-6.75,4.81 Z M18.07,18 l-0.13,0 c-1.6,0,-1.93,-0.33,-1.93,-1.93 l0,-2.07 l-2.07,0 c-1.6,0,-1.93,-0.33,-1.93,-1.93 l0,-0.13 c0,-1.6,0.33,-1.93,1.93,-1.93 l2.07,0 l0,-2.07 c0,-1.6,0.33,-1.93,1.93,-1.93 l0.13,0 c1.6,0,1.93,0.33,1.93,1.93 l0,2.07 l2.07,0 c1.6,0,1.93,0.33,1.93,1.93 l0,0.13 c0,1.6,-0.33,1.93,-1.93,1.93 l-2.07,0 l0,2.07 c0,1.6,-0.33,1.93,-1.93,1.93 Z M18.07,18"></path></svg>